<svg width="20" height="20" viewBox="0 0 20 20" fill="none" xmlns="http://www.w3.org/2000/svg">
<path d="M5.44443 10.444H14.5555V12.1551H15.4444V9.55512H10.4444V7.77734H9.55554V9.55512H4.55554V12.1551H5.44443V10.444Z" fill="#222222"/>
<path d="M7.77778 12.7773H2.22223C1.60858 12.7773 1.11111 13.2748 1.11111 13.8885V17.2218C1.11111 17.8354 1.60858 18.3329 2.22223 18.3329H7.77778C8.39143 18.3329 8.88889 17.8354 8.88889 17.2218V13.8885C8.88889 13.2748 8.39143 12.7773 7.77778 12.7773Z" fill="#222222"/>
<path d="M17.7778 12.7773H12.2222C11.6086 12.7773 11.1111 13.2748 11.1111 13.8885V17.2218C11.1111 17.8354 11.6086 18.3329 12.2222 18.3329H17.7778C18.3914 18.3329 18.8889 17.8354 18.8889 17.2218V13.8885C18.8889 13.2748 18.3914 12.7773 17.7778 12.7773Z" fill="#222222"/>
<path d="M12.7778 1.66699H7.22223C6.60858 1.66699 6.11111 2.16445 6.11111 2.7781V6.11144C6.11111 6.72509 6.60858 7.22255 7.22223 7.22255H12.7778C13.3914 7.22255 13.8889 6.72509 13.8889 6.11144V2.7781C13.8889 2.16445 13.3914 1.66699 12.7778 1.66699Z" fill="#222222"/>
</svg>
